<svg xmlns="http://www.w3.org/2000/svg" viewBox="-3879 -208 938.382 620.149"><defs><style>.a{fill:#191919;stroke:#999;stroke-width:3px}.b{filter:url(#a)}</style><filter id="a" x="-3879" y="-208" width="938.382" height="620.149" filterUnits="userSpaceOnUse"><feOffset dx="3" dy="3"/><feGaussianBlur stdDeviation="3" result="b"/><feFlood flood-opacity=".161"/><feComposite operator="in" in2="b"/><feComposite in="SourceGraphic"/></filter></defs><path class="b a" d="M-3835.5 401.648a39 39 0 0 1-39-39V-94.369a39 39 0 0 1 39-39h235.927c21.532-40.293 97.1-70.131 186.764-70.131s165.234 29.838 186.767 70.131h235.926a39 39 0 0 1 39 39v457.017a39 39 0 0 1-39 39zm570.174-535.018q-9.216-4.032-20.088-7.57c-35.2-11.436-80.447-17.734-127.395-17.734s-92.19 6.3-127.393 17.734q-10.853 3.526-20.089 7.57z"/></svg>