<svg xmlns="http://www.w3.org/2000/svg" xmlns:xlink="http://www.w3.org/1999/xlink" viewBox="-3440 -741 162 162"><defs><style>.a{fill:#999;stroke:#999;stroke-width:3px;}.b{filter:url(#a);}</style><filter id="a" x="-3440" y="-741" width="162" height="162" filterUnits="userSpaceOnUse"><feOffset dx="3" dy="3" input="SourceAlpha"/><feGaussianBlur stdDeviation="3" result="b"/><feFlood flood-opacity="0.161"/><feComposite operator="in" in2="b"/><feComposite in="SourceGraphic"/></filter></defs><g class="b" transform="matrix(1, 0, 0, 1, 0, 0)"><path class="a" d="M73.5,147A73.5,73.5,0,1,1,147,73.5,73.583,73.583,0,0,1,73.5,147ZM23.424,61.575a11.924,11.924,0,1,0,0,23.848H62.076v38.651a11.924,11.924,0,1,0,23.848,0V85.424h38.651a11.924,11.924,0,1,0,0-23.848H85.924V22.924a11.924,11.924,0,1,0-23.848,0V61.575Z" transform="translate(-3435.5 -736.5)"/></g></svg>